<?xml version="1.0" encoding="utf-8" ?><svg xmlns="http://www.w3.org/2000/svg" xmlns:xlink="http://www.w3.org/1999/xlink" width="1024" height="1024" viewBox="0 0 1024 1024"><defs><linearGradient id="gradient_0" gradientUnits="userSpaceOnUse" x1="610.00769" y1="629.04761" x2="696.50195" y2="334.40616"><stop offset="0" stop-color="#8D8C8C"/><stop offset="1" stop-color="#ACACAB"/></linearGradient></defs><path fill="url(#gradient_0)" d="M508.731 189.495L509.989 189.495L510.618 190.131C520.418 194.855 532.651 202.682 542.123 208.414L604.598 246.98L659.07 280.508C666.942 285.18 674.771 289.925 682.554 294.743C684.233 295.788 689.481 298.855 690.871 299.879C711.891 313.057 733.13 325.881 754.58 338.347C766.101 345.135 777.915 353.261 790.038 359.08C790.234 359.217 790.431 359.354 790.628 359.491L791.579 360.414L791.363 369.279C790.241 422.239 790.779 476.311 789.958 529.404L789.12 613.214C788.856 631.394 787.899 652.233 788.492 670.164L787.669 671.928L784.949 672.992C780.58 675.916 774.067 679.331 769.34 682.085C757.951 688.846 746.436 695.394 734.802 701.724C730.312 704.175 718.626 711.158 714.683 712.842C713.386 713.987 700.886 720.969 698.684 722.228L656.803 746.143L566.39 798.23C551.073 807.065 532.64 818.293 517.102 826.305C514.111 827.976 512.201 828.983 509.504 831.101C504.711 828.68 498.753 824.883 494.036 822.101C483.526 815.944 473.069 809.698 462.664 803.364L389.962 759.809L285.368 697.845C269.318 688.445 252.696 679.198 236.82 669.59L236.463 669.037C235.259 668.138 235.236 667.143 235.224 665.672C235.101 650.004 235.148 634.328 235.138 618.658L235.137 524.822C234.785 517.199 235.063 507.254 235.051 499.493L234.971 450.319C234.926 423.133 234.012 390.887 234.968 364.011C235.208 363.889 236.713 363.484 237.026 363.394C239.278 361.718 242.337 359.794 244.752 358.292C259.498 349.122 274.155 338.016 289.346 329.705C290.891 328.266 303.048 321.052 305.637 319.312C325.439 306.005 345.929 293.572 366.111 280.838L453.78 224.753C470.054 214.231 487.271 202.547 503.787 192.583C505.097 191.423 507.154 190.397 508.731 189.495Z"/><path fill="#191919" d="M234.968 364.011L237.046 365.546C247.077 369.24 262.333 377.031 272.691 381.521C279.393 384.427 296.888 391.696 302.547 394.9L304.01 396.977C306.018 398.306 373.057 464.816 373.791 466.09L374.207 465.184C380.402 470.871 389.484 477.285 396.396 482.481L435.384 511.788C484.924 549.312 534.818 586.367 585.059 622.95C589.568 623.98 595.091 623.187 599.633 623.946C611.039 623.836 625.358 625.002 636.976 625.475C661.112 626.491 685.254 627.357 709.4 628.075C710.685 628.216 711.983 628.349 713.264 628.518C715.094 628.758 784.637 669.234 787.669 671.928L784.949 672.992C780.58 675.916 774.067 679.331 769.34 682.085C757.951 688.846 746.436 695.394 734.802 701.724C730.312 704.175 718.626 711.158 714.683 712.842C713.386 713.987 700.886 720.969 698.684 722.228L656.803 746.143L566.39 798.23C551.073 807.065 532.64 818.293 517.102 826.305C514.111 827.976 512.201 828.983 509.504 831.101C504.711 828.68 498.753 824.883 494.036 822.101C483.526 815.944 473.069 809.698 462.664 803.364L389.962 759.809L285.368 697.845C269.318 688.445 252.696 679.198 236.82 669.59L236.463 669.037C235.259 668.138 235.236 667.143 235.224 665.672C235.101 650.004 235.148 634.328 235.138 618.658L235.137 524.822C234.785 517.199 235.063 507.254 235.051 499.493L234.971 450.319C234.926 423.133 234.012 390.887 234.968 364.011Z"/><path fill="#191919" d="M234.968 364.011L237.046 365.546C247.077 369.24 262.333 377.031 272.691 381.521C279.393 384.427 296.888 391.696 302.547 394.9L304.01 396.977C306.018 398.306 373.057 464.816 373.791 466.09C372.215 476.252 370.558 486.4 368.82 496.536C368.127 496.041 367.515 495.34 367.015 495.608C361.352 498.635 354.569 510.748 350.769 515.052C346.54 519.842 328.488 540.935 323.655 541.499C322.498 539.141 323.617 538.557 322.199 538.038C322.8 545.189 333.69 617.05 333.039 618.799C333.693 621.017 334.208 624.805 334.481 627.176C336.181 641.224 338.68 655.283 340.333 669.389L269.871 669.518C261.762 669.52 244.216 668.971 236.82 669.59L236.463 669.037C235.259 668.138 235.236 667.143 235.224 665.672C235.101 650.004 235.148 634.328 235.138 618.658L235.137 524.822C234.785 517.199 235.063 507.254 235.051 499.493L234.971 450.319C234.926 423.133 234.012 390.887 234.968 364.011Z"/><path fill="#BFBEBE" d="M234.968 364.011L237.046 365.546C247.077 369.24 262.333 377.031 272.691 381.521C279.393 384.427 296.888 391.696 302.547 394.9L304.01 396.977C304.437 398.688 307.578 401.32 309.091 402.841C307.867 404.476 305.849 407.585 304.255 408.379C302.836 405.97 304.065 401.057 301.873 396.524C300.667 398.746 287.927 453.8 287.453 458.458C281.936 478.128 277.97 498.487 272.884 518.294C272.452 519.976 271.347 525.611 270.644 526.806C268.221 528.82 267.085 541.665 265.584 543.178C265.011 543.046 262.959 542.537 262.5 542.799C255.238 546.938 247.464 551.47 240.52 556.033C239.727 556.554 236.437 561.173 235.895 561.929C234.622 555.646 237.949 529.535 235.137 524.822C234.785 517.199 235.063 507.254 235.051 499.493L234.971 450.319C234.926 423.133 234.012 390.887 234.968 364.011Z"/><path fill="#A8A7A7" d="M237.046 365.546C247.077 369.24 262.333 377.031 272.691 381.521C279.393 384.427 296.888 391.696 302.547 394.9L304.01 396.977C304.437 398.688 307.578 401.32 309.091 402.841C307.867 404.476 305.849 407.585 304.255 408.379C302.836 405.97 304.065 401.057 301.873 396.524C300.667 398.746 287.927 453.8 287.453 458.458C277.345 441.071 268.079 423.119 258.026 405.632C251.175 393.716 244.199 381.164 237.756 369.021C237.075 367.736 237.006 366.943 237.046 365.546Z"/><defs><linearGradient id="gradient_1" gradientUnits="userSpaceOnUse" x1="358.36923" y1="506.38382" x2="277.6412" y2="440.96106"><stop offset="0" stop-color="#898888"/><stop offset="1" stop-color="#BAB8B8"/></linearGradient></defs><path fill="url(#gradient_1)" d="M304.01 396.977C306.018 398.306 373.057 464.816 373.791 466.09C372.215 476.252 370.558 486.4 368.82 496.536C368.127 496.041 367.515 495.34 367.015 495.608C361.352 498.635 354.569 510.748 350.769 515.052C346.54 519.842 328.488 540.935 323.655 541.499C322.498 539.141 323.617 538.557 322.199 538.038C317.802 512.985 314.461 485.021 310.77 459.775L305.254 421.724C304.096 413.784 302.507 404.398 301.873 396.524C304.065 401.057 302.836 405.97 304.255 408.379C305.849 407.585 307.867 404.476 309.091 402.841C307.578 401.32 304.437 398.688 304.01 396.977Z"/><defs><linearGradient id="gradient_2" gradientUnits="userSpaceOnUse" x1="283.17575" y1="630.46948" x2="288.95081" y2="674.49902"><stop offset="0" stop-color="#969595"/><stop offset="1" stop-color="#C2C2C1"/></linearGradient></defs><path fill="url(#gradient_2)" d="M333.039 618.799C333.693 621.017 334.208 624.805 334.481 627.176C336.181 641.224 338.68 655.283 340.333 669.389L269.871 669.518C261.762 669.52 244.216 668.971 236.82 669.59L236.463 669.037L236.648 668.319C248.289 661.851 267.01 651.524 278.92 646.181C283.15 643.458 293.165 638.644 297.952 636.228C309.604 630.331 321.3 624.521 333.039 618.799Z"/><path fill="#838283" d="M333.039 618.799C333.693 621.017 334.208 624.805 334.481 627.176L333.177 624.267C329.335 625.611 326.404 627.428 322.105 628.798C317.117 630.387 310.431 631.626 305.826 633.493C297.525 636.86 288.592 646.195 278.92 646.181C283.15 643.458 293.165 638.644 297.952 636.228C309.604 630.331 321.3 624.521 333.039 618.799Z"/><defs><linearGradient id="gradient_3" gradientUnits="userSpaceOnUse" x1="272.09396" y1="642.75604" x2="228.67796" y2="560.31085"><stop offset="0" stop-color="#797979"/><stop offset="1" stop-color="#AFAEAF"/></linearGradient></defs><path fill="url(#gradient_3)" d="M235.137 524.822C237.949 529.535 234.622 555.646 235.895 561.929C236.437 561.173 239.727 556.554 240.52 556.033C247.464 551.47 255.238 546.938 262.5 542.799C262.959 542.537 265.011 543.046 265.584 543.178C267.085 541.665 268.221 528.82 270.644 526.806C268.422 538.475 264.543 552.857 261.694 564.686L244.018 636.668C241.634 646.101 239.033 655.625 236.45 665.016C236.029 666.548 236.117 667.066 236.648 668.319L236.463 669.037C235.259 668.138 235.236 667.143 235.224 665.672C235.101 650.004 235.148 634.328 235.138 618.658L235.137 524.822Z"/><defs><linearGradient id="gradient_4" gradientUnits="userSpaceOnUse" x1="558.26373" y1="646.97168" x2="666.68237" y2="773.1579"><stop offset="0" stop-color="#0E0E0E"/><stop offset="1" stop-color="#353535"/></linearGradient></defs><path fill="url(#gradient_4)" d="M599.633 623.946C611.039 623.836 625.358 625.002 636.976 625.475C661.112 626.491 685.254 627.357 709.4 628.075C710.685 628.216 711.983 628.349 713.264 628.518C715.094 628.758 784.637 669.234 787.669 671.928L784.949 672.992C780.58 675.916 774.067 679.331 769.34 682.085C757.951 688.846 746.436 695.394 734.802 701.724C730.312 704.175 718.626 711.158 714.683 712.842C713.386 713.987 700.886 720.969 698.684 722.228L656.803 746.143L566.39 798.23C551.073 807.065 532.64 818.293 517.102 826.305L516.391 825.895C512.801 827.124 512.407 828.653 509.36 829.51C508.058 824.818 506.463 803.769 506.04 798.256C504.583 779.246 501.991 757.923 501.219 739.027C504.93 734.371 508.633 728.641 512.069 723.708L530.639 696.991C538.875 684.961 548.167 673.39 556.41 661.315C560.002 656.054 564.102 650.207 568.438 645.624L568.161 646.146C571.313 643.561 582.657 627.913 584.89 624.021C589.822 623.909 594.784 624.598 599.633 623.946Z"/><path fill="#464545" d="M766.852 673.001C758.866 673.04 750.881 673.01 742.896 672.911C746.866 672.333 783.081 671.761 784.949 672.992C780.58 675.916 774.067 679.331 769.34 682.085C757.951 688.846 746.436 695.394 734.802 701.724C730.312 704.175 718.626 711.158 714.683 712.842C715.824 710.387 725.42 705.654 728.456 703.973C734.495 683.882 743.619 694.846 754.773 689.516C753.667 688.853 753.992 689.157 753.281 688.128C753.994 679.372 758.632 674.83 766.852 673.001Z"/><defs><linearGradient id="gradient_5" gradientUnits="userSpaceOnUse" x1="389.39679" y1="620.52637" x2="317.67899" y2="536.97937"><stop offset="0" stop-color="#515151"/><stop offset="1" stop-color="#8A8989"/></linearGradient></defs><path fill="url(#gradient_5)" d="M322.199 538.038C323.617 538.557 322.498 539.141 323.655 541.499C328.488 540.935 346.54 519.842 350.769 515.052C354.569 510.748 361.352 498.635 367.015 495.608C367.515 495.34 368.127 496.041 368.82 496.536L350.287 609.805L344.2 647.176C343.228 653.218 341.734 663.76 340.333 669.389C338.68 655.283 336.181 641.224 334.481 627.176C334.208 624.805 333.693 621.017 333.039 618.799C333.69 617.05 322.8 545.189 322.199 538.038Z"/><path fill="#191919" d="M508.731 189.495L509.989 189.495L510.618 190.131C520.418 194.855 532.651 202.682 542.123 208.414L604.598 246.98L659.07 280.508C666.942 285.18 674.771 289.925 682.554 294.743C684.233 295.788 689.481 298.855 690.871 299.879C685.402 313.728 679.925 314.084 672.093 325.945C670.082 328.991 667.515 336.42 664.962 338.925C664.811 339.073 663.16 339.442 662.996 339.48C642.672 335.881 622.317 332.462 601.933 329.222C599.364 330.802 596.222 332.26 594.554 334.508C594.346 336.139 594.31 336.164 595.565 337.85L591.07 337.364L590.629 337.832L590.468 338.707L589.195 339.15C589.052 341.565 587.914 345.045 585.389 345.907C585.89 344.393 586.28 344.278 587.425 343.032C585.859 342.967 580.485 347.114 577.411 347.831C570.406 349.467 550.686 364.259 542.742 368.988C538.664 371.416 534.007 373.242 529.672 375.177C528.618 375.647 525.485 377.373 524.558 376.956C523.983 376.698 523.561 376.625 522.946 376.56C507.926 384.975 379.221 460.581 376.778 463.963L376.658 464.584C374.961 464.736 375.111 464.39 374.207 465.184L373.791 466.09C373.057 464.816 306.018 398.306 304.01 396.977L302.547 394.9C296.888 391.696 279.393 384.427 272.691 381.521C262.333 377.031 247.077 369.24 237.046 365.546L234.968 364.011C235.208 363.889 236.713 363.484 237.026 363.394C239.278 361.718 242.337 359.794 244.752 358.292C259.498 349.122 274.155 338.016 289.346 329.705C290.891 328.266 303.048 321.052 305.637 319.312C325.439 306.005 345.929 293.572 366.111 280.838L453.78 224.753C470.054 214.231 487.271 202.547 503.787 192.583C505.097 191.423 507.154 190.397 508.731 189.495Z"/><defs><linearGradient id="gradient_6" gradientUnits="userSpaceOnUse" x1="435.4343" y1="334.29092" x2="391.53925" y2="270.8501"><stop offset="0" stop-color="#424242"/><stop offset="1" stop-color="#646363"/></linearGradient></defs><path fill="url(#gradient_6)" d="M503.787 192.583C505.097 191.423 507.154 190.397 508.731 189.495L508.606 191.295C507.98 198.728 504.926 211.021 503.637 219.486C498.951 248.716 494.635 278.005 490.69 307.345C489.671 314.898 487.5 323.775 486.793 331.12C482.718 333.182 480.473 333.411 476.241 334.702C457.878 340.305 439.756 347.725 421.372 353.199C415.538 355.895 400.67 360.574 394.174 362.781L343.731 379.862C334.745 382.84 325.777 385.873 316.828 388.959C314.694 389.704 304.902 393.318 303.271 393.646L302.547 394.9C296.888 391.696 279.393 384.427 272.691 381.521C262.333 377.031 247.077 369.24 237.046 365.546L234.968 364.011C235.208 363.889 236.713 363.484 237.026 363.394C239.278 361.718 242.337 359.794 244.752 358.292C259.498 349.122 274.155 338.016 289.346 329.705C290.891 328.266 303.048 321.052 305.637 319.312C325.439 306.005 345.929 293.572 366.111 280.838L453.78 224.753C470.054 214.231 487.271 202.547 503.787 192.583Z"/><defs><linearGradient id="gradient_7" gradientUnits="userSpaceOnUse" x1="498.20258" y1="280.32657" x2="280.71564" y2="273.15424"><stop offset="0" stop-color="#171918"/><stop offset="1" stop-color="#5C595B"/></linearGradient></defs><path fill="url(#gradient_7)" d="M289.346 329.705C290.891 328.266 303.048 321.052 305.637 319.312C325.439 306.005 345.929 293.572 366.111 280.838L453.78 224.753C470.054 214.231 487.271 202.547 503.787 192.583C501.471 196.978 476.177 220.822 470.739 226.191L375.164 320.178L351.09 343.767C350.144 344.703 343.958 351.412 343.619 351.684C333.8 361.415 323.984 371.203 314.277 381.045C310.388 384.988 306.967 389.212 303.033 393.199L303.271 393.646L302.547 394.9C296.888 391.696 279.393 384.427 272.691 381.521C262.333 377.031 247.077 369.24 237.046 365.546L234.968 364.011C235.208 363.889 236.713 363.484 237.026 363.394C239.278 361.718 242.337 359.794 244.752 358.292C259.498 349.122 274.155 338.016 289.346 329.705Z"/><path fill="#313131" d="M289.346 329.705L289.467 330.451C289.305 330.585 289.14 330.715 288.981 330.852C285.167 334.14 278.459 348.077 278.153 353.416C278.073 354.806 278.075 356.924 278.945 358.09C279.381 358.673 281.033 358.714 281.756 358.841C284.12 358.849 293.023 357.556 295.762 357.211L328.259 352.895C332.144 352.379 340.033 351.086 343.619 351.684C333.8 361.415 323.984 371.203 314.277 381.045C310.388 384.988 306.967 389.212 303.033 393.199L303.271 393.646L302.547 394.9C296.888 391.696 279.393 384.427 272.691 381.521C262.333 377.031 247.077 369.24 237.046 365.546L234.968 364.011C235.208 363.889 236.713 363.484 237.026 363.394C239.278 361.718 242.337 359.794 244.752 358.292C259.498 349.122 274.155 338.016 289.346 329.705Z"/><defs><linearGradient id="gradient_8" gradientUnits="userSpaceOnUse" x1="284.97375" y1="348.6825" x2="240.1505" y2="346.82266"><stop offset="0" stop-color="#5B5C5B"/><stop offset="1" stop-color="#777375"/></linearGradient></defs><path fill="url(#gradient_8)" d="M289.346 329.705L289.467 330.451C289.305 330.585 289.14 330.715 288.981 330.852C285.167 334.14 278.459 348.077 278.153 353.416C278.073 354.806 278.075 356.924 278.945 358.09C279.381 358.673 281.033 358.714 281.756 358.841C274.985 359.812 241.641 364.712 237.026 363.394C239.278 361.718 242.337 359.794 244.752 358.292C259.498 349.122 274.155 338.016 289.346 329.705Z"/><defs><linearGradient id="gradient_9" gradientUnits="userSpaceOnUse" x1="496.9408" y1="300.73471" x2="433.96207" y2="275.03818"><stop offset="0" stop-color="#1D1D1D"/><stop offset="1" stop-color="#595959"/></linearGradient></defs><path fill="url(#gradient_9)" d="M421.372 353.199C420.028 352.199 404.072 358.822 400.757 359.492L400.427 359.042C403.746 355.06 413.544 349.43 417.27 345.899C429.711 333.167 442.447 317.697 451.885 302.495C465.094 281.222 476.52 257.204 488.474 235.281C493.846 225.432 502.834 197.711 508.606 191.295C507.98 198.728 504.926 211.021 503.637 219.486C498.951 248.716 494.635 278.005 490.69 307.345C489.671 314.898 487.5 323.775 486.793 331.12C482.718 333.182 480.473 333.411 476.241 334.702C457.878 340.305 439.756 347.725 421.372 353.199Z"/><defs><linearGradient id="gradient_10" gradientUnits="userSpaceOnUse" x1="495.4628" y1="236.37195" x2="686.79852" y2="309.83792"><stop offset="0" stop-color="#4E4D4E"/><stop offset="1" stop-color="#828282"/></linearGradient></defs><path fill="url(#gradient_10)" d="M510.618 190.131C520.418 194.855 532.651 202.682 542.123 208.414L604.598 246.98L659.07 280.508C666.942 285.18 674.771 289.925 682.554 294.743C684.233 295.788 689.481 298.855 690.871 299.879C685.402 313.728 679.925 314.084 672.093 325.945C670.082 328.991 667.515 336.42 664.962 338.925C664.811 339.073 663.16 339.442 662.996 339.48C642.672 335.881 622.317 332.462 601.933 329.222C599.364 330.802 596.222 332.26 594.554 334.508C594.346 336.139 594.31 336.164 595.565 337.85L591.07 337.364C589.504 334.031 587.784 330.839 586.063 327.585C585.502 326.214 585.657 326.747 584.212 325.609L584.269 324.38C583.499 322.581 582.264 320.637 581.256 318.928L580.838 317.868L577.238 310.725L577.039 310.429C574.787 306.207 571.791 300.243 569.247 296.363C568.98 295.245 550.916 261.874 549.656 260.253L548.37 260.555C547.726 260.133 547.395 259.937 547.012 259.205C542.882 250.305 536.626 241.122 532.463 232.39C528.911 224.941 517.754 209.025 516.175 201.992C514.527 197.624 512.121 194.495 510.618 190.131Z"/><path fill="#313131" d="M516.175 201.992L517.791 204.211C518.48 203.223 518.257 202.901 518.352 201.486C526.687 215.051 599.978 328.355 601.933 329.222C599.364 330.802 596.222 332.26 594.554 334.508C594.346 336.139 594.31 336.164 595.565 337.85L591.07 337.364C589.504 334.031 587.784 330.839 586.063 327.585C585.502 326.214 585.657 326.747 584.212 325.609L584.269 324.38C583.499 322.581 582.264 320.637 581.256 318.928L580.838 317.868L577.238 310.725L577.039 310.429C574.787 306.207 571.791 300.243 569.247 296.363C568.98 295.245 550.916 261.874 549.656 260.253L548.37 260.555C547.726 260.133 547.395 259.937 547.012 259.205C542.882 250.305 536.626 241.122 532.463 232.39C528.911 224.941 517.754 209.025 516.175 201.992Z"/><path fill="#464545" d="M577.039 310.429L576 311.22C573.538 309.431 568.385 299.668 569.247 296.363C571.791 300.243 574.787 306.207 577.039 310.429Z"/><path fill="#464545" d="M590.629 337.832C589.81 337.605 587.455 337.262 586.569 337.124C587.737 337.059 587.352 337.184 588.394 336.737C587.998 333.326 585.88 332.642 585.128 328.841L586.063 327.585C587.784 330.839 589.504 334.031 591.07 337.364L590.629 337.832Z"/><path fill="#464545" d="M584.269 324.38C583.671 324.016 583.194 323.821 582.541 323.591C581.049 321.869 581.529 321.756 581.256 318.928C582.264 320.637 583.499 322.581 584.269 324.38Z"/><path fill="#464545" d="M580.838 317.868C579.075 316.915 577.198 312.696 577.238 310.725L580.838 317.868Z"/><defs><linearGradient id="gradient_11" gradientUnits="userSpaceOnUse" x1="540.17456" y1="436.20312" x2="471.41599" y2="558.01434"><stop offset="0" stop-color="#3E3E3E"/><stop offset="1" stop-color="#787878"/></linearGradient></defs><path fill="url(#gradient_11)" d="M376.658 464.584L376.778 463.963C379.221 460.581 507.926 384.975 522.946 376.56C523.561 376.625 523.983 376.698 524.558 376.956C525.485 377.373 528.618 375.647 529.672 375.177C534.007 373.242 538.664 371.416 542.742 368.988C550.686 364.259 570.406 349.467 577.411 347.831C580.485 347.114 585.859 342.967 587.425 343.032C586.28 344.278 585.89 344.393 585.389 345.907C587.914 345.045 589.052 341.565 589.195 339.15L590.468 338.707C590.471 342.173 590.43 345.723 590.575 349.178C590.305 390.045 588.73 430.913 588.406 471.768C588.028 519.376 585.391 567.35 585.449 614.916C585.743 618.329 585.506 619.568 585.059 622.95C534.818 586.367 484.924 549.312 435.384 511.788L396.396 482.481C389.484 477.285 380.402 470.871 374.207 465.184C375.111 464.39 374.961 464.736 376.658 464.584Z"/><defs><linearGradient id="gradient_12" gradientUnits="userSpaceOnUse" x1="606.17529" y1="478.31754" x2="380.29474" y2="440.70862"><stop offset="0" stop-color="#0A0A0A"/><stop offset="1" stop-color="#434243"/></linearGradient></defs><path fill="url(#gradient_12)" d="M376.658 464.584L376.778 463.963C379.221 460.581 507.926 384.975 522.946 376.56C523.561 376.625 523.983 376.698 524.558 376.956C525.485 377.373 528.618 375.647 529.672 375.177C534.007 373.242 538.664 371.416 542.742 368.988C550.686 364.259 570.406 349.467 577.411 347.831C580.485 347.114 585.859 342.967 587.425 343.032C586.28 344.278 585.89 344.393 585.389 345.907C587.914 345.045 589.052 341.565 589.195 339.15L590.468 338.707C590.471 342.173 590.43 345.723 590.575 349.178C590.305 390.045 588.73 430.913 588.406 471.768C588.028 519.376 585.391 567.35 585.449 614.916C585.147 616.592 584.967 618.997 584.779 620.746C577.987 601.937 574.211 580.595 569.07 561.218C568.424 558.782 570.382 559.225 569.562 555.938C565.452 539.454 560.336 523.232 555.914 506.922L543.04 460.648C539.924 449.607 538.665 443.761 534.769 432.494C527.927 432.852 501.83 438.735 494.027 440.37C467.604 445.861 441.21 451.491 414.847 457.261C408.213 458.766 382.047 464.925 376.658 464.584Z"/><defs><linearGradient id="gradient_13" gradientUnits="userSpaceOnUse" x1="700.38855" y1="618.35345" x2="690.48645" y2="335.05759"><stop offset="0" stop-color="#3D3D3D"/><stop offset="1" stop-color="#6D6D6D"/></linearGradient></defs><path fill="url(#gradient_13)" d="M690.871 299.879C711.891 313.057 733.13 325.881 754.58 338.347C766.101 345.135 777.915 353.261 790.038 359.08C790.234 359.217 790.431 359.354 790.628 359.491L791.579 360.414C781.221 365.36 766.653 374.227 756.307 380.125L695.965 414.32C688.768 418.378 676.998 425.461 670.118 428.744C677.537 466.33 686.481 504.734 694.537 542.248C698.008 558.99 701.606 575.706 705.329 592.394C706.971 599.8 709.149 610.556 711.229 617.767L710.168 618.85C708.685 613.775 699.967 595.133 697.345 589.158C688.878 569.832 680.584 550.431 672.462 530.957L619.416 405.191L604.063 368.988C600.169 359.552 595.745 347.721 591.113 338.885C591.048 342.622 590.956 345.473 590.575 349.178C590.43 345.723 590.471 342.173 590.468 338.707L590.629 337.832L591.07 337.364L595.565 337.85C594.31 336.164 594.346 336.139 594.554 334.508C596.222 332.26 599.364 330.802 601.933 329.222C622.317 332.462 642.672 335.881 662.996 339.48C663.16 339.442 664.811 339.073 664.962 338.925C667.515 336.42 670.082 328.991 672.093 325.945C679.925 314.084 685.402 313.728 690.871 299.879Z"/><defs><linearGradient id="gradient_14" gradientUnits="userSpaceOnUse" x1="680.68768" y1="313.78699" x2="768.87939" y2="381.4624"><stop offset="0" stop-color="#868585"/><stop offset="1" stop-color="#A5A3A4"/></linearGradient></defs><path fill="url(#gradient_14)" d="M690.871 299.879C711.891 313.057 733.13 325.881 754.58 338.347C766.101 345.135 777.915 353.261 790.038 359.08C790.234 359.217 790.431 359.354 790.628 359.491C785.157 359.94 773.534 357.37 767.201 356.667L759.506 355.557C727.299 350.42 695.129 345.061 662.996 339.48C663.16 339.442 664.811 339.073 664.962 338.925C667.515 336.42 670.082 328.991 672.093 325.945C679.925 314.084 685.402 313.728 690.871 299.879Z"/><path fill="#191919" d="M601.933 329.222C622.317 332.462 642.672 335.881 662.996 339.48C695.129 345.061 727.299 350.42 759.506 355.557L759.522 356.734C737.552 354.05 715.563 351.522 693.558 349.15L595.565 337.85C594.31 336.164 594.346 336.139 594.554 334.508C596.222 332.26 599.364 330.802 601.933 329.222Z"/><path fill="#313131" d="M759.506 355.557L767.201 356.667C765.225 358.13 761.856 357.117 759.522 356.734L759.506 355.557Z"/><defs><linearGradient id="gradient_15" gradientUnits="userSpaceOnUse" x1="731.25146" y1="641.44183" x2="845.3382" y2="397.36639"><stop offset="0" stop-color="#666565"/><stop offset="1" stop-color="#858585"/></linearGradient></defs><path fill="url(#gradient_15)" d="M734.664 557.35C748.042 510.575 761.691 463.878 775.611 417.261C778.215 408.844 780.691 400.387 783.039 391.895C784.807 385.609 787.219 376.111 789.929 370.416C790.945 369.813 790.46 370.182 791.363 369.279C790.241 422.239 790.779 476.311 789.958 529.404L789.12 613.214C788.856 631.394 787.899 652.233 788.492 670.164L787.669 671.928C784.637 669.234 715.094 628.758 713.264 628.518C711.983 628.349 710.685 628.216 709.4 628.075C711.244 628.105 711.818 628.217 713.6 627.619C714.956 624.751 718.33 612.39 719.536 608.426L734.664 557.35Z"/><path fill="#464545" d="M734.664 557.35C737.927 562.504 744.886 578.341 747.864 584.613L780.277 654.038C782.281 658.245 785.637 667.626 788.492 670.164L787.669 671.928C784.637 669.234 715.094 628.758 713.264 628.518C711.983 628.349 710.685 628.216 709.4 628.075C711.244 628.105 711.818 628.217 713.6 627.619C714.956 624.751 718.33 612.39 719.536 608.426L734.664 557.35Z"/><path fill="#464545" d="M711.229 617.767L712.881 625.501C711.713 623.001 711.041 621.529 710.168 618.85L711.229 617.767Z"/></svg>